<!-- Placeholder SVG for logo -->
<svg width="86" height="22" viewBox="0 0 86 22" fill="none" xmlns="http://www.w3.org/2000/svg">
  <!-- Logo text -->
  <rect x="0" y="0" width="19" height="21" fill="#0345F1"/>
  <rect x="20" y="0" width="19" height="21" fill="#0345F1"/>
  <rect x="40" y="0" width="16" height="21" fill="#0345F1"/>
  <rect x="58" y="0" width="4" height="21" fill="#0345F1"/>
  
  <!-- Circle with star -->
  <circle cx="75" cy="11" r="10" stroke="#FF4719" stroke-width="4" fill="none"/>
  <polygon points="75,6 76,9 79,9 77,11 78,14 75,12 72,14 73,11 71,9 74,9" fill="#FF4719"/>
  
  <!-- Small star -->
  <polygon points="78,3 79,5 81,5 80,6 80,8 78,7 76,8 76,6 75,5 77,5" stroke="#FF4719" stroke-width="1" fill="none"/>
</svg>
